<?xml version="1.0" encoding="UTF-8"?>
<svg viewBox="0 0 64 64" xmlns="http://www.w3.org/2000/svg">
 <defs>
  <filter id="g">
   <feGaussianBlur stdDeviation="1.41343"/>
  </filter>
  <filter id="f">
   <feGaussianBlur stdDeviation=".2"/>
  </filter>
  <filter id="e"/>
  <linearGradient id="d" x2="0" y1="728.22" y2="774.39" gradientUnits="userSpaceOnUse">
   <stop stop-color="#fff" offset="0"/>
   <stop stop-color="#fff" stop-opacity="0" offset="1"/>
  </linearGradient>
  <linearGradient id="c" x2="0" y1="775.27" y2="743.2" gradientUnits="userSpaceOnUse">
   <stop offset="0"/>
   <stop stop-opacity="0" offset="1"/>
  </linearGradient>
  <linearGradient id="b" x2="0" y1="725.78" y2="778.28" gradientUnits="userSpaceOnUse">
   <stop stop-color="#c7c7c7" offset="0"/>
   <stop stop-color="#757575" offset="1"/>
  </linearGradient>
  <radialGradient id="a" cx="584.38" cy="755.22" r="25" gradientTransform="matrix(.88023 0 0 1 70.538 0)" gradientUnits="userSpaceOnUse">
   <stop stop-color="#fff" offset="0"/>
   <stop stop-color="#d7d8d4" offset="1"/>
  </radialGradient>
 </defs>
 <g transform="translate(-559.43 -723.22)">
  <path d="m573.04 729.83h34a8 8 0 0 1 8 8v34a8 8 0 0 1 -8 8h-34a8 8 0 0 1 -8 -8v-34a8 8 0 0 1 8 -8" filter="url(#g)" opacity=".3"/>
  <path d="m571.93 727.72h33a8 8 0 0 1 8 8v33a8 8 0 0 1 -8 8h-33a8 8 0 0 1 -8 -8v-33a8 8 0 0 1 8 -8" fill="url(#a)"/>
  <path d="m571.93 727.72h33a8 8 0 0 1 8 8v33a8 8 0 0 1 -8 8h-33a8 8 0 0 1 -8 -8v-33a8 8 0 0 1 8 -8" fill="url(#c)" opacity=".3"/>
  <path d="m588.43 732.22c-11.092 0-20 9.0313-20 20.008s8.9076 19.992 20 19.992 20-9.0156 20-19.992-8.9076-20.008-20-20.008zm0 2.9142c9.2943 0 16.898 7.5796 16.898 17.094 0 7.7355-5.0313 14.182-11.91 16.326v-5.4054c0-1.684-0.61924-3.189-1.6056-4.199h0.90413c3.9795 0 7.1863-3.2231 7.1863-7.2229v-1.9115c0-2.0674-0.8682-3.9193-2.2447-5.2331v-4.293l-4.0686 2.3658c-0.28743-0.0349-0.57586-0.0626-0.87296-0.0626h-7.6851c-0.59852 0-1.1752 0.082-1.7303 0.21934l-4.3492-2.5225v5.6874c-0.6935 1.1113-1.1068 2.4246-1.1068 3.8386v1.9115c0 3.9997 3.2068 7.2229 7.1863 7.2229h0.81061c-0.82294 0.84629-1.3806 2.0449-1.5433 3.3999-3.4125 1.3122-3.9875-2.7037-8.3398-3.3059 5.2014 4.2491 2.6021 5.3959 8.2775 5.6874v4.058c-7.2816-1.8774-12.705-8.528-12.705-16.561 0-9.514 7.6036-17.094 16.898-17.094zm0.59236 26.714c0.27636 0 0.49883 2.4597 0.49883 5.5151v1.1124c0 0.28436-0.0116 0.53826-0.0156 0.79906-0.32249 0.0207-0.63949 0.0448-0.96647 0.0471-0.01-0.27573-0.0156-0.54501-0.0156-0.84606v-1.1124c0-3.0554 0.22247-5.5151 0.49882-5.5151zm-2.5877 0.40738c0.27635 0 0.49882 2.4597 0.49882 5.5151v1.0968c0 0.13375 2e-3 0.25254 0 0.37603-0.33511-0.0295-0.66829-0.0606-0.99765-0.10965-9.6e-4 -0.0887 0-0.1716 0-0.26636v-1.0967c0-3.0554 0.22247-5.5151 0.49883-5.5151zm4.9883 0c0.27636 0 0.49883 2.4597 0.49883 5.5151v1.0968c0 0.0279 1.5e-4 0.0511 0 0.0783-0.33038 0.0702-0.66065 0.12184-0.99766 0.17235-9.5e-4 -0.0839 0-0.16151 0-0.25069v-1.0968c0-3.0554 0.22248-5.5151 0.49883-5.5151z" fill="#2e3436" stroke="#888a85"/>
  <path d="m588.43 733.22c-11.092 0-20 9.0313-20 20.008s8.9076 19.992 20 19.992 20-9.0156 20-19.992-8.9076-20.008-20-20.008zm0 2.9142c9.2943 0 16.898 7.5796 16.898 17.094 0 7.7355-5.0313 14.182-11.91 16.326v-5.4054c0-1.684-0.61924-3.189-1.6056-4.199h0.90413c3.9795 0 7.1863-3.2231 7.1863-7.2229v-1.9115c0-2.0674-0.8682-3.9193-2.2447-5.2331v-4.293l-4.0686 2.3658c-0.28743-0.0349-0.57586-0.0626-0.87296-0.0626h-7.6851c-0.59852 0-1.1752 0.082-1.7303 0.21934l-4.3492-2.5225v5.6874c-0.6935 1.1113-1.1068 2.4246-1.1068 3.8386v1.9115c0 3.9997 3.2068 7.2229 7.1863 7.2229h0.81061c-0.82294 0.84629-1.3806 2.0449-1.5433 3.3999-3.4125 1.3122-3.9875-2.7037-8.3398-3.3059 5.2014 4.2491 2.6021 5.3959 8.2775 5.6874v4.058c-7.2816-1.8774-12.705-8.528-12.705-16.561 0-9.514 7.6036-17.094 16.898-17.094zm0.59236 26.714c0.27636 0 0.49883 2.4597 0.49883 5.5151v1.1124c0 0.28436-0.0116 0.53826-0.0156 0.79906-0.32249 0.0207-0.63949 0.0448-0.96647 0.0471-0.01-0.27573-0.0156-0.54501-0.0156-0.84606v-1.1124c0-3.0554 0.22247-5.5151 0.49882-5.5151zm-2.5877 0.40738c0.27635 0 0.49882 2.4597 0.49882 5.5151v1.0968c0 0.13375 2e-3 0.25254 0 0.37603-0.33511-0.0295-0.66829-0.0606-0.99765-0.10965-9.6e-4 -0.0887 0-0.1716 0-0.26636v-1.0967c0-3.0554 0.22247-5.5151 0.49883-5.5151zm4.9883 0c0.27636 0 0.49883 2.4597 0.49883 5.5151v1.0968c0 0.0279 1.5e-4 0.0511 0 0.0783-0.33038 0.0702-0.66065 0.12184-0.99766 0.17235-9.5e-4 -0.0839 0-0.16151 0-0.25069v-1.0968c0-3.0554 0.22248-5.5151 0.49883-5.5151z" fill="#fff" filter="url(#f)" opacity=".5"/>
  <path d="m588.43 732.22c-11.092 0-20 9.0313-20 20.008s8.9076 19.992 20 19.992 20-9.0156 20-19.992-8.9076-20.008-20-20.008zm0 2.9142c9.2943 0 16.898 7.5796 16.898 17.094 0 7.7355-5.0313 14.182-11.91 16.326v-5.4054c0-1.684-0.61924-3.189-1.6056-4.199h0.90413c3.9795 0 7.1863-3.2231 7.1863-7.2229v-1.9115c0-2.0674-0.8682-3.9193-2.2447-5.2331v-4.293l-4.0686 2.3658c-0.28743-0.0349-0.57586-0.0626-0.87296-0.0626h-7.6851c-0.59852 0-1.1752 0.082-1.7303 0.21934l-4.3492-2.5225v5.6874c-0.6935 1.1113-1.1068 2.4246-1.1068 3.8386v1.9115c0 3.9997 3.2068 7.2229 7.1863 7.2229h0.81061c-0.82294 0.84629-1.3806 2.0449-1.5433 3.3999-3.4125 1.3122-3.9875-2.7037-8.3398-3.3059 5.2014 4.2491 2.6021 5.3959 8.2775 5.6874v4.058c-7.2816-1.8774-12.705-8.528-12.705-16.561 0-9.514 7.6036-17.094 16.898-17.094zm0.59236 26.714c0.27636 0 0.49883 2.4597 0.49883 5.5151v1.1124c0 0.28436-0.0116 0.53826-0.0156 0.79906-0.32249 0.0207-0.63949 0.0448-0.96647 0.0471-0.01-0.27573-0.0156-0.54501-0.0156-0.84606v-1.1124c0-3.0554 0.22247-5.5151 0.49882-5.5151zm-2.5877 0.40738c0.27635 0 0.49882 2.4597 0.49882 5.5151v1.0968c0 0.13375 2e-3 0.25254 0 0.37603-0.33511-0.0295-0.66829-0.0606-0.99765-0.10965-9.6e-4 -0.0887 0-0.1716 0-0.26636v-1.0967c0-3.0554 0.22247-5.5151 0.49883-5.5151zm4.9883 0c0.27636 0 0.49883 2.4597 0.49883 5.5151v1.0968c0 0.0279 1.5e-4 0.0511 0 0.0783-0.33038 0.0702-0.66065 0.12184-0.99766 0.17235-9.5e-4 -0.0839 0-0.16151 0-0.25069v-1.0968c0-3.0554 0.22248-5.5151 0.49883-5.5151z" fill="#2e3436"/>
  <path d="m571.55 728.22c-3.878 0-7 3.122-7 7v17.625h47.875v-17.625c0-3.878-3.122-7-7-7h-33.875z" fill="#fff" opacity=".2"/>
  <path transform="translate(559.43 723.22)" d="m29,9c-11.09244,0-20,9.02346-20,20 0,.16616-.00406.33477 0,.5 .27214-10.74372 9.08071-19.5 20-19.5s19.72786,8.75628 20,19.5c.0041-.16523 0-.33384 0-.5 0-10.97654-8.90758-20-20-20zm-9.46875,8.0625v1l4.34375,2.53125c.55516-.13734 1.12023-.21875 1.71875-.21875h7.6875c.2971,0 .58757.0276.875.0625l4.0625-2.375v-1l-4.0625,2.375c-.28743-.0349-.5779-.0625-.875-.0625h-7.6875c-.59852,0-1.16359.08141-1.71875.21875zm18.6875,4.3125v1c1.37654,1.31377 2.25,3.15138 2.25,5.21875v-1c0-2.06737-.87346-3.90498-2.25-5.21875zm-18.6875,1.375c-.6935,1.11127-1.125,2.42975-1.125,3.84375v1c0-1.414.4315-2.73248 1.125-3.84375zm-7.40625,6.8125c-.0037.14783-.03125.2887-.03125.4375 0,8.03288 5.43713,14.68511 12.71875,16.5625v-1c-7.11086-1.83336-12.44103-8.22063-12.6875-16zm33.75,0c-.23834,7.48292-5.165,13.68966-11.875,15.78125v1c6.87831-2.14405 11.90625-8.60824 11.90625-16.34375 0-.1488-.02755-.28967-.03125-.4375zm-29.34375,6.25c.62871.5136 1.13334,1.01058 1.5625,1.4375 2.9857,1.18071 3.8299,4.00988 6.78125,2.875v-1c-3.4125,1.31221-3.99143-2.71028-8.34375-3.3125zm17.46875,5.125v-1zm-3.90625,4.3125c0,.28436-.02725.5517-.03125.8125-.32249.0207-.64177.02895-.96875.03125v.15625c0,.30105-.01.56802 0,.84375 .32698-.0023.64626-.01055.96875-.03125 .004-.2608.03125-.52814.03125-.8125zm2.40625.46875c-.33038.0702-.66299.13699-1,.1875v.75c0,.08918-.00095.1661 0,.25 .33701-.05051.66962-.1173 1-.1875 .00015-.0272 0-.0346 0-.0625zm-6,.1875v.75c0,.09476-.00096.1613 0,.25 .32936.04905.66489.0955 1,.125 .002-.12349 0-.24125 0-.375v-.625c-.33511-.0295-.67064-.07595-1-.125z" filter="url(#e)" opacity=".62007"/>
  <path d="m571.93 727.72h33a8 8 0 0 1 8 8v33a8 8 0 0 1 -8 8h-33a8 8 0 0 1 -8 -8v-33a8 8 0 0 1 8 -8" fill="none" stroke="url(#b)" stroke-linejoin="round"/>
  <path d="m571.93 728.72h33a7 7 0 0 1 7 7v33a7 7 0 0 1 -7 7h-33a7 7 0 0 1 -7 -7v-33a7 7 0 0 1 7 -7" fill="none" opacity=".58065" stroke="url(#d)" stroke-linejoin="round"/>
 </g>
</svg>
